<svg width="64" height="64" viewBox="0 0 64 64" fill="none" xmlns="http://www.w3.org/2000/svg">
  <defs>
    <linearGradient id="seobuddy-gradient" x1="0" y1="0" x2="64" y2="64" gradientUnits="userSpaceOnUse">
      <stop stop-color="#1E90FF"/>
      <stop offset="1" stop-color="#10B981"/>
    </linearGradient>
  </defs>
  <circle cx="32" cy="32" r="30" fill="url(#seobuddy-gradient)"/>
  <!-- Globe grid -->
  <ellipse cx="32" cy="32" rx="20" ry="28" fill="none" stroke="#fff" stroke-width="2"/>
  <ellipse cx="32" cy="32" rx="28" ry="20" fill="none" stroke="#fff" stroke-width="2"/>
  <path d="M32 4v56M4 32h56" stroke="#fff" stroke-width="2"/>
  <!-- Chat bubble -->
  <path d="M44 44c-2.5 2.5-6.5 4-12 4s-9.5-1.5-12-4c-2.5-2.5-4-6.5-4-12s1.5-9.5 4-12c2.5-2.5 6.5-4 12-4s9.5 1.5 12 4" fill="none" stroke="#fff" stroke-width="2.5" stroke-linecap="round" stroke-linejoin="round"/>
  <circle cx="24" cy="38" r="2" fill="#fff"/>
  <circle cx="32" cy="40" r="2" fill="#fff"/>
  <circle cx="40" cy="38" r="2" fill="#fff"/>
</svg>